# xmcd CD database file
#
# Track frame offsets:
#	150
#	16488
#	33330
#	48493
#	64263
#	79418
#	97953
#	113728
#	133300
#	147430
#	163928
#	180528
#	198248
#	212038
#	228468
#	244043
#
# Disc length: 3436 seconds
#
# Revision: 2
# Processed by: cddbd v1.5.2PL0 Copyright (c) Steve Scherf et al.
# Submitted via: CDex 1.70beta2
#
DISCID=e60d6a10
DTITLE=青江三奈 - Re-Master Voice Disc 2
DYEAR=2002
DGENRE=Japanese Pop
TTITLE0=東京ブルース
TTITLE1=アカシアの雨がやむとき
TTITLE2=夢は夜ひらく
TTITLE3=京都から博多まで
TTITLE4=中の島ブルース
TTITLE5=ブランデーグラス
TTITLE6=水割り
TTITLE7=抱擁
TTITLE8=うそ
TTITLE9=よこはま・たそがれ
TTITLE10=一度だけなら
TTITLE11=石狩挽歌
TTITLE12=長崎の夜はむらさき
TTITLE13=女心の唄
TTITLE14=銀座ブルース
TTITLE15=赤坂の夜は更けて
EXTD=YEAR: 2002
EXTT0=
EXTT1=
EXTT2=
EXTT3=
EXTT4=
EXTT5=
EXTT6=
EXTT7=
EXTT8=
EXTT9=
EXTT10=
EXTT11=
EXTT12=
EXTT13=
EXTT14=
EXTT15=
PLAYORDER=
